<mxfile host="app.diagrams.net" modified="2024-02-08T21:14:42.746Z" agent="5.0 (Windows NT 10.0; Win64; x64) AppleWebKit/537.36 (KHTML, like Gecko) Chrome/121.0.0.0 Safari/537.36" etag="tdsU2A3iWz3PjB7jerYa" version="20.4.0" type="github">
  <diagram id="SjvjRBxBpNQSDBPTFtZ3" name="Page-1">
    <mxGraphModel dx="1422" dy="788" grid="1" gridSize="10" guides="1" tooltips="1" connect="1" arrows="1" fold="1" page="1" pageScale="1" pageWidth="850" pageHeight="1100" math="0" shadow="0">
      <root>
        <mxCell id="0" />
        <mxCell id="1" parent="0" />
        <mxCell id="GKlPvhUjlpxNrxeBCHZV-4" style="edgeStyle=orthogonalEdgeStyle;rounded=0;orthogonalLoop=1;jettySize=auto;html=1;" parent="1" source="GKlPvhUjlpxNrxeBCHZV-2" target="GKlPvhUjlpxNrxeBCHZV-3" edge="1">
          <mxGeometry relative="1" as="geometry" />
        </mxCell>
        <mxCell id="GKlPvhUjlpxNrxeBCHZV-2" value="Start" style="strokeWidth=2;html=1;shape=mxgraph.flowchart.start_1;whiteSpace=wrap;" parent="1" vertex="1">
          <mxGeometry x="60" y="190" width="100" height="60" as="geometry" />
        </mxCell>
        <mxCell id="GKlPvhUjlpxNrxeBCHZV-7" style="edgeStyle=orthogonalEdgeStyle;rounded=0;orthogonalLoop=1;jettySize=auto;html=1;exitX=1;exitY=0.5;exitDx=0;exitDy=0;exitPerimeter=0;entryX=0;entryY=0.5;entryDx=0;entryDy=0;entryPerimeter=0;" parent="1" source="GKlPvhUjlpxNrxeBCHZV-3" target="GKlPvhUjlpxNrxeBCHZV-6" edge="1">
          <mxGeometry relative="1" as="geometry" />
        </mxCell>
        <mxCell id="GKlPvhUjlpxNrxeBCHZV-3" value="&lt;span style=&quot;font-family: Roboto, &amp;quot;Segoe UI&amp;quot;, Verdana, &amp;quot;Bitstream Vera Sans&amp;quot;, Helvetica, sans-serif; font-size: 16px; text-align: start; background-color: rgb(255, 255, 255);&quot;&gt;1. Running Assessment&lt;/span&gt;" style="strokeWidth=2;html=1;shape=mxgraph.flowchart.terminator;whiteSpace=wrap;" parent="1" vertex="1">
          <mxGeometry x="180" y="190" width="100" height="60" as="geometry" />
        </mxCell>
        <mxCell id="GKlPvhUjlpxNrxeBCHZV-10" style="edgeStyle=orthogonalEdgeStyle;rounded=0;orthogonalLoop=1;jettySize=auto;html=1;exitX=1;exitY=0.5;exitDx=0;exitDy=0;exitPerimeter=0;entryX=0;entryY=0.5;entryDx=0;entryDy=0;entryPerimeter=0;" parent="1" source="GKlPvhUjlpxNrxeBCHZV-6" target="GKlPvhUjlpxNrxeBCHZV-9" edge="1">
          <mxGeometry relative="1" as="geometry" />
        </mxCell>
        <mxCell id="GKlPvhUjlpxNrxeBCHZV-6" value="&lt;span style=&quot;font-family: Roboto, &amp;quot;Segoe UI&amp;quot;, Verdana, &amp;quot;Bitstream Vera Sans&amp;quot;, Helvetica, sans-serif; font-size: 16px; text-align: start; background-color: rgb(255, 255, 255);&quot;&gt;2. Preparing Assessment Report&lt;/span&gt;" style="strokeWidth=2;html=1;shape=mxgraph.flowchart.terminator;whiteSpace=wrap;" parent="1" vertex="1">
          <mxGeometry x="300" y="190" width="100" height="60" as="geometry" />
        </mxCell>
        <mxCell id="GKlPvhUjlpxNrxeBCHZV-20" value="Yes" style="edgeStyle=orthogonalEdgeStyle;rounded=0;orthogonalLoop=1;jettySize=auto;html=1;exitX=0.5;exitY=1;exitDx=0;exitDy=0;exitPerimeter=0;entryX=0.465;entryY=0.011;entryDx=0;entryDy=0;entryPerimeter=0;" parent="1" source="GKlPvhUjlpxNrxeBCHZV-8" target="GKlPvhUjlpxNrxeBCHZV-16" edge="1">
          <mxGeometry relative="1" as="geometry" />
        </mxCell>
        <mxCell id="GKlPvhUjlpxNrxeBCHZV-26" value="No" style="edgeStyle=orthogonalEdgeStyle;rounded=0;orthogonalLoop=1;jettySize=auto;html=1;exitX=0;exitY=0.5;exitDx=0;exitDy=0;exitPerimeter=0;" parent="1" source="GKlPvhUjlpxNrxeBCHZV-8" target="GKlPvhUjlpxNrxeBCHZV-17" edge="1">
          <mxGeometry relative="1" as="geometry" />
        </mxCell>
        <mxCell id="GKlPvhUjlpxNrxeBCHZV-8" value="Any questions to auditor?" style="strokeWidth=2;html=1;shape=mxgraph.flowchart.decision;whiteSpace=wrap;" parent="1" vertex="1">
          <mxGeometry x="670" y="270" width="80" height="80" as="geometry" />
        </mxCell>
        <mxCell id="GKlPvhUjlpxNrxeBCHZV-12" style="edgeStyle=orthogonalEdgeStyle;rounded=0;orthogonalLoop=1;jettySize=auto;html=1;exitX=1;exitY=0.5;exitDx=0;exitDy=0;exitPerimeter=0;entryX=0;entryY=0.5;entryDx=0;entryDy=0;entryPerimeter=0;" parent="1" source="GKlPvhUjlpxNrxeBCHZV-9" target="GKlPvhUjlpxNrxeBCHZV-11" edge="1">
          <mxGeometry relative="1" as="geometry" />
        </mxCell>
        <mxCell id="GKlPvhUjlpxNrxeBCHZV-9" value="&lt;span style=&quot;font-family: Roboto, &amp;quot;Segoe UI&amp;quot;, Verdana, &amp;quot;Bitstream Vera Sans&amp;quot;, Helvetica, sans-serif; font-size: 16px; text-align: start; background-color: rgb(255, 255, 255);&quot;&gt;3. Finalising Report&lt;/span&gt;" style="strokeWidth=2;html=1;shape=mxgraph.flowchart.terminator;whiteSpace=wrap;" parent="1" vertex="1">
          <mxGeometry x="420" y="190" width="100" height="60" as="geometry" />
        </mxCell>
        <mxCell id="GKlPvhUjlpxNrxeBCHZV-11" value="&lt;span style=&quot;font-family: Roboto, &amp;quot;Segoe UI&amp;quot;, Verdana, &amp;quot;Bitstream Vera Sans&amp;quot;, Helvetica, sans-serif; font-size: 16px; text-align: start; background-color: rgb(255, 255, 255);&quot;&gt;4. Upload new Report to wiki&lt;/span&gt;" style="strokeWidth=2;html=1;shape=mxgraph.flowchart.terminator;whiteSpace=wrap;" parent="1" vertex="1">
          <mxGeometry x="540" y="190" width="100" height="60" as="geometry" />
        </mxCell>
        <mxCell id="GKlPvhUjlpxNrxeBCHZV-13" value="Finish" style="strokeWidth=2;html=1;shape=mxgraph.flowchart.start_1;whiteSpace=wrap;" parent="1" vertex="1">
          <mxGeometry x="60" y="370" width="100" height="60" as="geometry" />
        </mxCell>
        <mxCell id="GKlPvhUjlpxNrxeBCHZV-22" style="edgeStyle=orthogonalEdgeStyle;rounded=0;orthogonalLoop=1;jettySize=auto;html=1;exitX=0.5;exitY=1;exitDx=0;exitDy=0;exitPerimeter=0;entryX=0.5;entryY=0;entryDx=0;entryDy=0;entryPerimeter=0;" parent="1" source="GKlPvhUjlpxNrxeBCHZV-15" target="GKlPvhUjlpxNrxeBCHZV-8" edge="1">
          <mxGeometry relative="1" as="geometry" />
        </mxCell>
        <mxCell id="GKlPvhUjlpxNrxeBCHZV-15" value="&lt;span style=&quot;font-family: Roboto, &amp;quot;Segoe UI&amp;quot;, Verdana, &amp;quot;Bitstream Vera Sans&amp;quot;, Helvetica, sans-serif; font-size: 16px; text-align: start; background-color: rgb(255, 255, 255);&quot;&gt;5. Review of the Report&lt;/span&gt;" style="strokeWidth=2;html=1;shape=mxgraph.flowchart.process;whiteSpace=wrap;" parent="1" vertex="1">
          <mxGeometry x="660" y="190" width="100" height="60" as="geometry" />
        </mxCell>
        <mxCell id="GKlPvhUjlpxNrxeBCHZV-25" style="edgeStyle=orthogonalEdgeStyle;rounded=0;orthogonalLoop=1;jettySize=auto;html=1;entryX=0.5;entryY=1;entryDx=0;entryDy=0;entryPerimeter=0;" parent="1" source="GKlPvhUjlpxNrxeBCHZV-16" target="GKlPvhUjlpxNrxeBCHZV-17" edge="1">
          <mxGeometry relative="1" as="geometry" />
        </mxCell>
        <mxCell id="GKlPvhUjlpxNrxeBCHZV-16" value="&lt;span style=&quot;font-family: Roboto, &amp;quot;Segoe UI&amp;quot;, Verdana, &amp;quot;Bitstream Vera Sans&amp;quot;, Helvetica, sans-serif; font-size: 16px; text-align: start; background-color: rgb(255, 255, 255);&quot;&gt;6. Answer Questions to the rep&lt;/span&gt;" style="strokeWidth=2;html=1;shape=mxgraph.flowchart.process;whiteSpace=wrap;" parent="1" vertex="1">
          <mxGeometry x="660" y="370" width="100" height="60" as="geometry" />
        </mxCell>
        <mxCell id="GKlPvhUjlpxNrxeBCHZV-27" style="edgeStyle=orthogonalEdgeStyle;rounded=0;orthogonalLoop=1;jettySize=auto;html=1;entryX=1;entryY=0.5;entryDx=0;entryDy=0;entryPerimeter=0;" parent="1" source="GKlPvhUjlpxNrxeBCHZV-17" target="GKlPvhUjlpxNrxeBCHZV-18" edge="1">
          <mxGeometry relative="1" as="geometry" />
        </mxCell>
        <mxCell id="GKlPvhUjlpxNrxeBCHZV-17" value="&lt;span style=&quot;font-family: Roboto, &amp;quot;Segoe UI&amp;quot;, Verdana, &amp;quot;Bitstream Vera Sans&amp;quot;, Helvetica, sans-serif; font-size: 16px; text-align: start; background-color: rgb(255, 255, 255);&quot;&gt;7. Recomm-endation to vote&lt;/span&gt;" style="strokeWidth=2;html=1;shape=mxgraph.flowchart.terminator;whiteSpace=wrap;" parent="1" vertex="1">
          <mxGeometry x="540" y="280" width="100" height="60" as="geometry" />
        </mxCell>
        <mxCell id="GKlPvhUjlpxNrxeBCHZV-34" style="edgeStyle=orthogonalEdgeStyle;rounded=0;orthogonalLoop=1;jettySize=auto;html=1;entryX=1;entryY=0.5;entryDx=0;entryDy=0;" parent="1" source="GKlPvhUjlpxNrxeBCHZV-18" target="GKlPvhUjlpxNrxeBCHZV-31" edge="1">
          <mxGeometry relative="1" as="geometry" />
        </mxCell>
        <mxCell id="GKlPvhUjlpxNrxeBCHZV-18" value="&lt;span style=&quot;font-family: Roboto, &amp;quot;Segoe UI&amp;quot;, Verdana, &amp;quot;Bitstream Vera Sans&amp;quot;, Helvetica, sans-serif; font-size: 16px; text-align: start; background-color: rgb(255, 255, 255);&quot;&gt;8. Call for vote&lt;/span&gt;" style="strokeWidth=2;html=1;shape=mxgraph.flowchart.process;whiteSpace=wrap;" parent="1" vertex="1">
          <mxGeometry x="420" y="280" width="100" height="60" as="geometry" />
        </mxCell>
        <mxCell id="GKlPvhUjlpxNrxeBCHZV-37" value="" style="edgeStyle=orthogonalEdgeStyle;rounded=0;orthogonalLoop=1;jettySize=auto;html=1;" parent="1" source="GKlPvhUjlpxNrxeBCHZV-28" target="GKlPvhUjlpxNrxeBCHZV-36" edge="1">
          <mxGeometry relative="1" as="geometry" />
        </mxCell>
        <mxCell id="GKlPvhUjlpxNrxeBCHZV-28" value="&lt;span style=&quot;font-family: Roboto, &amp;quot;Segoe UI&amp;quot;, Verdana, &amp;quot;Bitstream Vera Sans&amp;quot;, Helvetica, sans-serif; font-size: 16px; text-align: start; background-color: rgb(255, 255, 255);&quot;&gt;10. Printing Certificates for Meeting&lt;/span&gt;" style="strokeWidth=2;html=1;shape=mxgraph.flowchart.process;whiteSpace=wrap;" parent="1" vertex="1">
          <mxGeometry x="180" y="280" width="100" height="60" as="geometry" />
        </mxCell>
        <mxCell id="GKlPvhUjlpxNrxeBCHZV-35" value="Yes" style="edgeStyle=orthogonalEdgeStyle;rounded=0;orthogonalLoop=1;jettySize=auto;html=1;exitX=0;exitY=0.5;exitDx=0;exitDy=0;entryX=1;entryY=0.5;entryDx=0;entryDy=0;entryPerimeter=0;" parent="1" source="GKlPvhUjlpxNrxeBCHZV-31" target="GKlPvhUjlpxNrxeBCHZV-28" edge="1">
          <mxGeometry relative="1" as="geometry" />
        </mxCell>
        <mxCell id="GKlPvhUjlpxNrxeBCHZV-31" value="&lt;span style=&quot;font-family: Roboto, &amp;quot;Segoe UI&amp;quot;, Verdana, &amp;quot;Bitstream Vera Sans&amp;quot;, Helvetica, sans-serif; font-size: 16px; text-align: start; background-color: rgb(255, 255, 255);&quot;&gt;9. Voting: Accept / Decline&lt;/span&gt;" style="rhombus;whiteSpace=wrap;html=1;strokeWidth=2;" parent="1" vertex="1">
          <mxGeometry x="310" y="270" width="80" height="80" as="geometry" />
        </mxCell>
        <mxCell id="GKlPvhUjlpxNrxeBCHZV-48" style="edgeStyle=orthogonalEdgeStyle;rounded=0;orthogonalLoop=1;jettySize=auto;html=1;entryX=0.5;entryY=0;entryDx=0;entryDy=0;entryPerimeter=0;" parent="1" source="GKlPvhUjlpxNrxeBCHZV-36" target="GKlPvhUjlpxNrxeBCHZV-13" edge="1">
          <mxGeometry relative="1" as="geometry" />
        </mxCell>
        <mxCell id="GKlPvhUjlpxNrxeBCHZV-36" value="&lt;span style=&quot;font-family: Roboto, &amp;quot;Segoe UI&amp;quot;, Verdana, &amp;quot;Bitstream Vera Sans&amp;quot;, Helvetica, sans-serif; font-size: 16px; text-align: start; background-color: rgb(255, 255, 255);&quot;&gt;11. Communication&lt;/span&gt;" style="strokeWidth=2;html=1;shape=mxgraph.flowchart.process;whiteSpace=wrap;" parent="1" vertex="1">
          <mxGeometry x="60" y="280" width="100" height="60" as="geometry" />
        </mxCell>
        <mxCell id="GKlPvhUjlpxNrxeBCHZV-38" value="&lt;span style=&quot;font-family: Roboto, &amp;quot;Segoe UI&amp;quot;, Verdana, &amp;quot;Bitstream Vera Sans&amp;quot;, Helvetica, sans-serif; font-size: 16px; text-align: start; background-color: rgb(255, 255, 255);&quot;&gt;1. Running Assessment&lt;/span&gt;" style="strokeWidth=2;html=1;shape=mxgraph.flowchart.terminator;whiteSpace=wrap;" parent="1" vertex="1">
          <mxGeometry x="180" y="190" width="100" height="60" as="geometry" />
        </mxCell>
        <mxCell id="GKlPvhUjlpxNrxeBCHZV-39" value="&lt;span style=&quot;font-family: Roboto, &amp;quot;Segoe UI&amp;quot;, Verdana, &amp;quot;Bitstream Vera Sans&amp;quot;, Helvetica, sans-serif; font-size: 16px; text-align: start; background-color: rgb(255, 255, 255);&quot;&gt;2. Preparing Assessment Report&lt;/span&gt;" style="strokeWidth=2;html=1;shape=mxgraph.flowchart.terminator;whiteSpace=wrap;" parent="1" vertex="1">
          <mxGeometry x="300" y="190" width="100" height="60" as="geometry" />
        </mxCell>
        <mxCell id="GKlPvhUjlpxNrxeBCHZV-40" value="&lt;span style=&quot;font-family: Roboto, &amp;quot;Segoe UI&amp;quot;, Verdana, &amp;quot;Bitstream Vera Sans&amp;quot;, Helvetica, sans-serif; font-size: 16px; text-align: start; background-color: rgb(255, 255, 255);&quot;&gt;3. Finalising Report&lt;/span&gt;" style="strokeWidth=2;html=1;shape=mxgraph.flowchart.terminator;whiteSpace=wrap;" parent="1" vertex="1">
          <mxGeometry x="420" y="190" width="100" height="60" as="geometry" />
        </mxCell>
        <mxCell id="GKlPvhUjlpxNrxeBCHZV-41" value="&lt;span style=&quot;font-family: Roboto, &amp;quot;Segoe UI&amp;quot;, Verdana, &amp;quot;Bitstream Vera Sans&amp;quot;, Helvetica, sans-serif; font-size: 16px; text-align: start; background-color: rgb(255, 255, 255);&quot;&gt;4. Upload new Report to wiki&lt;/span&gt;" style="strokeWidth=2;html=1;shape=mxgraph.flowchart.terminator;whiteSpace=wrap;" parent="1" vertex="1">
          <mxGeometry x="540" y="190" width="100" height="60" as="geometry" />
        </mxCell>
        <mxCell id="GKlPvhUjlpxNrxeBCHZV-42" value="&lt;span style=&quot;font-family: Roboto, &amp;quot;Segoe UI&amp;quot;, Verdana, &amp;quot;Bitstream Vera Sans&amp;quot;, Helvetica, sans-serif; font-size: 16px; text-align: start; background-color: rgb(255, 255, 255);&quot;&gt;1. Running Assessment&lt;/span&gt;" style="strokeWidth=2;html=1;shape=mxgraph.flowchart.process;whiteSpace=wrap;" parent="1" vertex="1">
          <mxGeometry x="180" y="190" width="100" height="60" as="geometry" />
        </mxCell>
        <mxCell id="GKlPvhUjlpxNrxeBCHZV-43" value="&lt;span style=&quot;font-family: Roboto, &amp;quot;Segoe UI&amp;quot;, Verdana, &amp;quot;Bitstream Vera Sans&amp;quot;, Helvetica, sans-serif; font-size: 16px; text-align: start; background-color: rgb(255, 255, 255);&quot;&gt;2. Preparing Assessment Report&lt;/span&gt;" style="strokeWidth=2;html=1;shape=mxgraph.flowchart.process;whiteSpace=wrap;" parent="1" vertex="1">
          <mxGeometry x="300" y="190" width="100" height="60" as="geometry" />
        </mxCell>
        <mxCell id="GKlPvhUjlpxNrxeBCHZV-44" value="&lt;span style=&quot;font-family: Roboto, &amp;quot;Segoe UI&amp;quot;, Verdana, &amp;quot;Bitstream Vera Sans&amp;quot;, Helvetica, sans-serif; font-size: 16px; text-align: start; background-color: rgb(255, 255, 255);&quot;&gt;3. Finalising Report&lt;/span&gt;" style="strokeWidth=2;html=1;shape=mxgraph.flowchart.process;whiteSpace=wrap;" parent="1" vertex="1">
          <mxGeometry x="420" y="190" width="100" height="60" as="geometry" />
        </mxCell>
        <mxCell id="GKlPvhUjlpxNrxeBCHZV-45" value="&lt;span style=&quot;font-family: Roboto, &amp;quot;Segoe UI&amp;quot;, Verdana, &amp;quot;Bitstream Vera Sans&amp;quot;, Helvetica, sans-serif; font-size: 16px; text-align: start; background-color: rgb(255, 255, 255);&quot;&gt;4. Upload new Report to wiki&lt;/span&gt;" style="strokeWidth=2;html=1;shape=mxgraph.flowchart.process;whiteSpace=wrap;" parent="1" vertex="1">
          <mxGeometry x="540" y="190" width="100" height="60" as="geometry" />
        </mxCell>
        <mxCell id="GKlPvhUjlpxNrxeBCHZV-46" value="&lt;span style=&quot;font-family: Roboto, &amp;quot;Segoe UI&amp;quot;, Verdana, &amp;quot;Bitstream Vera Sans&amp;quot;, Helvetica, sans-serif; font-size: 16px; text-align: start; background-color: rgb(255, 255, 255);&quot;&gt;7. Recomm-endation to vote&lt;/span&gt;" style="strokeWidth=2;html=1;shape=mxgraph.flowchart.process;whiteSpace=wrap;" parent="1" vertex="1">
          <mxGeometry x="540" y="280" width="100" height="60" as="geometry" />
        </mxCell>
        <mxCell id="VGtHFKbhaWOMihHarqae-1" value="TF-CSIRT Certification Process Workflow.drawio" style="text;html=1;resizable=0;autosize=1;align=center;verticalAlign=middle;points=[];fillColor=none;strokeColor=none;rounded=0;" vertex="1" parent="1">
          <mxGeometry x="260" y="120" width="280" height="30" as="geometry" />
        </mxCell>
      </root>
    </mxGraphModel>
  </diagram>
</mxfile>
